<svg xmlns="http://www.w3.org/2000/svg" baseProfile="tiny" version="1.2" viewBox="0 0 1000 1000"><path fill="#fff" stroke="#1d1d1b" stroke-miterlimit="10" d="M0 0h1000v1000H0z"/><g fill="#20264a"><path d="M569.99 307.1c63.33 163.22 54.01 324.24-15.23 445.62-30.2 1.45-54.1-2.65-69.59-5.42-58.18-10.39-103.03-27.85-125.99-42.51-61.47-39.29-83.17-79.89-93.76-78-18.46 3.27 14.38 133.23 25.56 158.27 2.01 4.47.75 9.61-3.04 12.93-21.52 18.74-103.95 26.23-110.41-3.1-16.66-75.45-23.08-138.35-9.21-193.06 8.39-33.07 38.27-57.35 80.37-62.4 51.06-6.14 123.94 40.88 146.08 54.99 17.06 10.86 30.93 21.49 48.55 18.72 25.79-4.08 40.47-33.86 46.88-46.8 13.94-28.24 10.48-56.94 7.95-72.15-1.34-8.02-5.27-29.99-21.76-51.48-25.72-33.52-51.61-26.28-77.02-53.04-28.9-30.42-30.95-70.92-27.21-101.01 10.51-84.61 39.63-102.96 39.63-102.96 12.37-1.83 49.44 11.94 63.83 17.53 3.39 1.33 5.4 4.64 4.85 8.03-8.22 51.54-16.07 107.45 31.64 134.57.17.09 23.03-41.17 44.46-63.29 2.25-2.32 2.63 2.16 1.93-2.43 3.81 8.68 8.01 18.07 11.48 27Z"/><path d="M224.09 822.57c-11.53 0-22.5-1.34-31.31-4.24-16.37-5.4-21.63-14.79-23.15-21.71-19.26-87.25-22-146.1-9.15-196.78 9.35-36.88 42.78-63.1 87.24-68.44 53.25-6.41 126.42 40.27 150.47 55.62l.92.58c1.78 1.13 3.53 2.27 5.25 3.38 13.94 9.04 24.96 16.17 37.71 14.17 21.61-3.41 35.1-30.69 40.86-42.34 12.38-25.07 10.06-50.42 7.26-67.3-1.14-6.81-4.61-27.56-20.2-47.89-12.73-16.6-25.43-22.18-38.88-28.09-12.24-5.38-24.89-10.94-37.59-24.31-24.73-26.03-34.88-63.23-29.37-107.58 4.49-36.15 12.81-65.15 24.75-86.2 9.33-16.46 17.68-22.02 18.6-22.61l1.44-.91 1.68-.25c12.96-1.91 44.1 8.73 67.94 17.99 6.99 2.74 11.06 9.66 9.9 16.84-8.63 54.07-12.49 97.8 20.99 121.99 15.17-25.36 28.78-44.43 40.53-56.78l-8.69-56.99 26.05 59.33c3.48 7.91 7.08 16.09 10.19 24.09 31.5 81.19 45.85 162.53 42.64 241.76-1.55 38.31-7.31 75.67-17.12 111.07-9.8 35.35-23.68 68.91-41.27 99.73l-2.2 3.86-4.43.21c-31.9 1.53-57.59-3.07-71.4-5.54-78.03-13.94-118.4-36.94-128.92-43.66-36.52-23.35-59.06-46.87-73.96-62.43-4.42-4.61-9.26-9.67-12.53-12.44-1.06 7.67-.21 27.45 8.21 66.79 7.46 34.87 17.14 67.77 21.82 78.25 3.44 7.65 1.4 16.62-5.09 22.31-13.12 11.43-42.64 18.51-69.16 18.51Zm35.5-275.8c-4.4 0-7.64.39-9.94.66-18.99 2.28-35.86 8.86-48.79 19.03-12.45 9.79-20.99 22.7-24.71 37.34-12.19 48.07-9.42 104.69 9.26 189.33 1.13 5.12 7.38 8.18 12.43 9.85 11.41 3.76 28.91 4.47 46.81 1.91 16.76-2.4 31.66-7.51 37.97-13 1.12-.99 1.5-2.34.97-3.52-5.79-12.96-15.76-48.42-22.71-80.75-14.24-66.18-7.99-77.96-5.94-81.83 2.02-3.81 5.24-6.28 9.05-6.96 8.69-1.56 15.74 5.8 28.53 19.15 14.38 15.01 36.11 37.69 71 60 20.36 13 63.39 30.7 123.05 41.37 13.4 2.4 35.37 6.32 63.34 5.48 15.89-28.59 28.51-59.57 37.54-92.15 9.48-34.2 15.05-70.34 16.54-107.41 3.11-76.99-10.87-156.14-41.56-235.24-1.91-4.92-4.05-9.98-6.24-15.02-8.31 9.83-20.18 26.1-35.8 52.69-.43.74-.77 1.32-1 1.71-3.35 5.6-8.66 4.81-11 3.6l-.29-.16c-23.77-13.51-37.12-34.5-40.83-64.15-2.97-23.76.53-49.43 5.09-78.06-32.07-12.45-50.44-16.88-57.55-17.04-5.53 5.04-26.24 28.08-34.68 96.05-6.2 49.76 10.2 78.83 25.04 94.45 10.47 11.02 21.11 15.7 32.38 20.65 14.03 6.17 29.94 13.15 45.19 33.04 18.05 23.52 22.02 47.27 23.33 55.07 1.83 11 7.41 44.48-8.68 77.06-6.9 13.96-22.99 46.49-52.87 51.21-18.86 2.96-33.51-6.52-49.01-16.57-1.68-1.09-3.4-2.21-5.15-3.31l-.92-.59c-74.21-47.34-111.88-53.86-129.91-53.86l.03-.02Z"/><path d="M839.19 454.23c-.09 10.08-1.04 56.35-24.38 112.33-11.45 27.44-35.97 78.94-92.08 126.37-11.79 9.97-33.07 29.26-69.53 42.98 0 0-3.56 6.62-14.42 21.8 39.76-117.99 43.35-274.04-8.64-408.05-11.45-29.48-24.88-57.67-40.08-84.38 54.65-23.09 114.21-6.82 126.28-3.2 51.75 15.62 75.07 41.63 88.42 59.55 35.18 47.23 34.74 96.45 34.43 132.6Z"/><path d="m613.8 806.51 17.32-51.38c20.02-59.4 30.28-126.97 29.67-195.37-.66-72.83-13.86-144.47-38.18-207.18-11.15-28.72-24.47-56.75-39.57-83.31l-4.49-7.9 8.37-3.54c55.28-23.36 114.82-8.58 131.75-3.49 53.24 16.06 78.33 43.34 92.58 62.46 36.79 49.4 36.35 100.3 36.03 137.46l-8.08-.03 8.08.07c-.14 17-2.86 62.26-25 115.36-7.93 19-32.04 76.79-94.33 129.42-.74.62-1.52 1.29-2.33 1.98-12.43 10.58-33.01 28.12-66.87 41.35-2.01 3.33-6.13 9.82-13.4 19.98l-31.55 44.1v.02Zm-12.14-537.03a649.703 649.703 0 0 1 36.01 77.25c25.03 64.5 38.6 138.11 39.27 212.88.51 57.29-6.42 114.04-20.18 166.19 29.06-12.06 47.21-27.53 58.37-37.03.83-.71 1.63-1.38 2.38-2.02 59.31-50.12 82.29-105.2 89.85-123.31 21.04-50.46 23.63-93.24 23.76-109.28v-.04c.3-34.88.72-82.64-32.83-127.67-13.97-18.75-36.17-42.12-84.27-56.65-14.74-4.43-64.49-16.85-112.34-.33Z"/></g></svg>