<?xml version="1.0" encoding="UTF-8"?>
<svg id="Camada_1" xmlns="http://www.w3.org/2000/svg" baseProfile="tiny" version="1.2" viewBox="0 0 1000 1000">
  <!-- Generator: Adobe Illustrator 30.2.1, SVG Export Plug-In . SVG Version: 2.1.1 Build 1)  -->
  <path d="M570,307.1c63.3,163.2,54,324.2-15.2,445.6-30.2,1.5-54.1-2.7-69.6-5.4-58.2-10.4-103-27.8-126-42.5-61.5-39.3-83.2-79.9-93.8-78-18.5,3.3,14.4,133.2,25.6,158.3,2,4.5.8,9.6-3,12.9-21.5,18.7-103.9,26.2-110.4-3.1-16.7-75.5-23.1-138.3-9.2-193.1,8.4-33.1,38.3-57.3,80.4-62.4,51.1-6.1,123.9,40.9,146.1,55,17.1,10.9,30.9,21.5,48.5,18.7,25.8-4.1,40.5-33.9,46.9-46.8,13.9-28.2,10.5-56.9,8-72.1-1.3-8-5.3-30-21.8-51.5-25.7-33.5-51.6-26.3-77-53-28.9-30.4-31-70.9-27.2-101,10.5-84.6,39.6-103,39.6-103,12.4-1.8,49.4,11.9,63.8,17.5,3.4,1.3,5.4,4.6,4.9,8-8.2,51.5-16.1,107.5,31.6,134.6.2,0,23-41.2,44.5-63.3,2.2-2.3,2.6,2.2,1.9-2.4,3.8,8.7,8,18.1,11.5,27h0Z" fill="#20264a"/>
  <path d="M224.1,822.6c-11.5,0-22.5-1.3-31.3-4.2-16.4-5.4-21.6-14.8-23.1-21.7-19.3-87.2-22-146.1-9.1-196.8,9.4-36.9,42.8-63.1,87.2-68.4,53.2-6.4,126.4,40.3,150.5,55.6l.9.6c1.8,1.1,3.5,2.3,5.2,3.4,13.9,9,25,16.2,37.7,14.2,21.6-3.4,35.1-30.7,40.9-42.3,12.4-25.1,10.1-50.4,7.3-67.3-1.1-6.8-4.6-27.6-20.2-47.9-12.7-16.6-25.4-22.2-38.9-28.1-12.2-5.4-24.9-10.9-37.6-24.3-24.7-26-34.9-63.2-29.4-107.6,4.5-36.1,12.8-65.1,24.8-86.2,9.3-16.5,17.7-22,18.6-22.6l1.4-.9,1.7-.2c13-1.9,44.1,8.7,67.9,18,7,2.7,11.1,9.7,9.9,16.8-8.6,54.1-12.5,97.8,21,122,15.2-25.4,28.8-44.4,40.5-56.8l-8.7-57,26,59.3c3.5,7.9,7.1,16.1,10.2,24.1h0c31.5,81.2,45.8,162.5,42.6,241.8-1.5,38.3-7.3,75.7-17.1,111.1-9.8,35.3-23.7,68.9-41.3,99.7l-2.2,3.9-4.4.2c-31.9,1.5-57.6-3.1-71.4-5.5-78-13.9-118.4-36.9-128.9-43.7-36.5-23.3-59.1-46.9-74-62.4-4.4-4.6-9.3-9.7-12.5-12.4-1.1,7.7-.2,27.5,8.2,66.8,7.5,34.9,17.1,67.8,21.8,78.2,3.4,7.7,1.4,16.6-5.1,22.3-13.1,11.4-42.6,18.5-69.2,18.5h0ZM259.6,546.8c-4.4,0-7.6.4-9.9.7-19,2.3-35.9,8.9-48.8,19-12.4,9.8-21,22.7-24.7,37.3-12.2,48.1-9.4,104.7,9.3,189.3,1.1,5.1,7.4,8.2,12.4,9.8,11.4,3.8,28.9,4.5,46.8,1.9,16.8-2.4,31.7-7.5,38-13,1.1-1,1.5-2.3,1-3.5-5.8-13-15.8-48.4-22.7-80.8-14.2-66.2-8-78-5.9-81.8,2-3.8,5.2-6.3,9-7,8.7-1.6,15.7,5.8,28.5,19.2,14.4,15,36.1,37.7,71,60,20.4,13,63.4,30.7,123.1,41.4,13.4,2.4,35.4,6.3,63.3,5.5,15.9-28.6,28.5-59.6,37.5-92.2,9.5-34.2,15-70.3,16.5-107.4,3.1-77-10.9-156.1-41.6-235.2-1.9-4.9-4-10-6.2-15-8.3,9.8-20.2,26.1-35.8,52.7-.4.7-.8,1.3-1,1.7-3.3,5.6-8.7,4.8-11,3.6l-.3-.2c-23.8-13.5-37.1-34.5-40.8-64.1-3-23.8.5-49.4,5.1-78.1-32.1-12.4-50.4-16.9-57.5-17-5.5,5-26.2,28.1-34.7,96-6.2,49.8,10.2,78.8,25,94.5,10.5,11,21.1,15.7,32.4,20.6,14,6.2,29.9,13.1,45.2,33,18,23.5,22,47.3,23.3,55.1,1.8,11,7.4,44.5-8.7,77.1-6.9,14-23,46.5-52.9,51.2-18.9,3-33.5-6.5-49-16.6-1.7-1.1-3.4-2.2-5.1-3.3l-.9-.6c-74.2-47.3-111.9-53.9-129.9-53.9h0s0,0,0,0Z" fill="#20264a"/>
  <path d="M839.2,454.2c0,10.1-1,56.4-24.4,112.3-11.5,27.4-36,78.9-92.1,126.4-11.8,10-33.1,29.3-69.5,43,0,0-3.6,6.6-14.4,21.8,39.8-118,43.3-274-8.6-408-11.5-29.5-24.9-57.7-40.1-84.4,54.7-23.1,114.2-6.8,126.3-3.2,51.8,15.6,75.1,41.6,88.4,59.5,35.2,47.2,34.7,96.5,34.4,132.6h0Z" fill="#20264a"/>
  <path d="M613.8,806.5l17.3-51.4c20-59.4,30.3-127,29.7-195.4-.7-72.8-13.9-144.5-38.2-207.2-11.2-28.7-24.5-56.8-39.6-83.3l-4.5-7.9,8.4-3.5c55.3-23.4,114.8-8.6,131.8-3.5,53.2,16.1,78.3,43.3,92.6,62.5,36.8,49.4,36.3,100.3,36,137.5h-8.1s8.1,0,8.1,0c-.1,17-2.9,62.3-25,115.4-7.9,19-32,76.8-94.3,129.4-.7.6-1.5,1.3-2.3,2-12.4,10.6-33,28.1-66.9,41.3-2,3.3-6.1,9.8-13.4,20l-31.5,44.1h0ZM601.7,269.5c13.6,24.8,25.7,50.7,36,77.2,25,64.5,38.6,138.1,39.3,212.9.5,57.3-6.4,114-20.2,166.2,29.1-12.1,47.2-27.5,58.4-37,.8-.7,1.6-1.4,2.4-2,59.3-50.1,82.3-105.2,89.8-123.3,21-50.5,23.6-93.2,23.8-109.3h0c.3-34.9.7-82.7-32.8-127.7-14-18.8-36.2-42.1-84.3-56.6-14.7-4.4-64.5-16.9-112.3-.3h0Z" fill="#20264a"/>
</svg>